<svg xmlns="http://www.w3.org/2000/svg" width="1024" height="1024" viewBox="0 0 1024 1024" role="img" aria-label="Personal Media Graph app icon">
  <defs>
    <linearGradient id="bg" x1="128" y1="96" x2="896" y2="928" gradientUnits="userSpaceOnUse">
      <stop offset="0" stop-color="#0f766e"/>
      <stop offset="0.52" stop-color="#2563eb"/>
      <stop offset="1" stop-color="#7c3aed"/>
    </linearGradient>
    <linearGradient id="card" x1="256" y1="230" x2="768" y2="794" gradientUnits="userSpaceOnUse">
      <stop offset="0" stop-color="#f8fafc"/>
      <stop offset="1" stop-color="#dbeafe"/>
    </linearGradient>
    <filter id="shadow" x="-30%" y="-30%" width="160%" height="160%">
      <feDropShadow dx="0" dy="28" stdDeviation="32" flood-color="#020617" flood-opacity="0.34"/>
    </filter>
  </defs>

  <rect width="1024" height="1024" rx="232" fill="url(#bg)"/>

  <g opacity="0.2" fill="none" stroke="#ffffff" stroke-width="18">
    <path d="M167 326c156-110 311-116 465-18 82 52 158 67 228 44"/>
    <path d="M151 676c109-83 220-106 334-70 144 46 263 19 357-80"/>
  </g>

  <g filter="url(#shadow)">
    <rect x="242" y="202" width="540" height="620" rx="92" fill="url(#card)"/>
    <rect x="310" y="286" width="244" height="326" rx="42" fill="#1d4ed8"/>
    <rect x="352" y="340" width="160" height="22" rx="11" fill="#bfdbfe"/>
    <rect x="352" y="396" width="120" height="22" rx="11" fill="#93c5fd"/>
    <rect x="352" y="452" width="176" height="22" rx="11" fill="#dbeafe"/>
    <path d="M332 566h200l-58-84-43 52-34-34-65 66Z" fill="#f8fafc"/>

    <path d="M554 374 684 314" stroke="#0f172a" stroke-width="26" stroke-linecap="round"/>
    <path d="M554 520 700 604" stroke="#0f172a" stroke-width="26" stroke-linecap="round"/>
    <path d="M674 318 700 604" stroke="#0f172a" stroke-width="26" stroke-linecap="round"/>

    <circle cx="554" cy="374" r="54" fill="#14b8a6" stroke="#f8fafc" stroke-width="22"/>
    <circle cx="690" cy="312" r="50" fill="#f59e0b" stroke="#f8fafc" stroke-width="22"/>
    <circle cx="708" cy="610" r="58" fill="#ef4444" stroke="#f8fafc" stroke-width="22"/>
    <circle cx="554" cy="520" r="44" fill="#8b5cf6" stroke="#f8fafc" stroke-width="20"/>
  </g>
</svg>
